# xmcd
#
# Track frame offsets:
#	182
#	15775
#	30582
#	47217
#	61927
#	79720
#	93030
#	108530
#	123347
#	141310
#	156355
#	173520
#
# Disc length: 2522 seconds
#
# Revision: 6
# Processed by: cddbd v1.5.2PL0 Copyright (c) Steve Scherf et al.
# Submitted via: audiograbber 1.83.01
#
DISCID=8b09d80c
DTITLE=Various Artist - Soul Hits Of The '70s - Didn't It Blow Your Mind! -- V
DTITLE=olume 15
DYEAR=1991
DGENRE=Oldies
TTITLE0=Rufus Featuring Chaka Khan - Once You Get Started
TTITLE1=Ben E. King - Supernatural Thing - Part 1
TTITLE2=Average White Band - Cut The Cake
TTITLE3=Jimmy Castor Bunch - The Bertha Butt Boogie - Part 1
TTITLE4=Shirley Brown - Woman To Woman
TTITLE5=Blackbyrds - Walking In Rhythm
TTITLE6=Minnie Riperton - Lovin' You
TTITLE7=Tavares - It Only Takes A Minute
TTITLE8=Joe Simon - Get Down, Get Down (Get On The Floor)
TTITLE9=Gwen McCrae - Rockin' Chair
TTITLE10=Major Harris - Love Won't Let Me Wait
TTITLE11=Staple Singers - Let's Do It Again
EXTD=
EXTT0=
EXTT1=
EXTT2=
EXTT3=
EXTT4=
EXTT5=
EXTT6=
EXTT7=
EXTT8=
EXTT9=
EXTT10=
EXTT11=
PLAYORDER=
